<?xml version="1.0" encoding="utf-8"?>
<!-- Generator: Adobe Illustrator 24.2.1, SVG Export Plug-In . SVG Version: 6.00 Build 0)  -->
<svg version="1.0" id="圖層_1" xmlns="http://www.w3.org/2000/svg" xmlns:xlink="http://www.w3.org/1999/xlink" x="0px" y="0px"
	 viewBox="0 0 375.4 394.3" style="enable-background:new 0 0 375.4 394.3;" xml:space="preserve">
<style type="text/css">
	.st0{fill:#F0A127;}
	.st1{fill:#FFFFFF;}
</style>
<g>
	<polygon points="280.4,43.2 337.7,344.3 321.2,344.3 309.1,285.1 152.2,286 161.6,344.3 144.3,344.3 94.4,43.2 	"/>
	<path class="st0" d="M340.1,346.3h-20.5l-12-59.2l-153,0.9l9.3,58.3h-21.3l-50.5-305h190L340.1,346.3z M322.8,342.3h12.5l-56.6-297
		H96.8l49.2,297h13.2l-9.3-58.2l160.9-1L322.8,342.3z"/>
</g>
<g>
	<polygon points="93.1,43.2 35.8,344.3 52.3,344.3 64.3,285.1 221.2,286 211.9,344.3 229.2,344.3 279,43.2 	"/>
	<path class="st0" d="M230.9,346.3h-21.3l9.3-58.3l-153-0.9l-12,59.2H33.3l58.1-305h190L230.9,346.3z M214.3,342.3h13.2l49.2-297
		H94.7l-56.6,297h12.5l12.1-59.2l160.9,1L214.3,342.3z"/>
</g>
<g>
	<path vector-effect="non-scaling-stroke" xmlns:default="http://www.w3.org/2000/svg" class="st1" d="M158.7,179.2l-2.7,2.7
		l10.8,10.8h-23.6v3.9h23.6L156,207.4l2.7,2.7l15.5-15.5L158.7,179.2z"/>
</g>
<g>
	<path class="st1" d="M113.6,160.1V130h10.3c1.6,0,3,0.1,4.4,0.3c1.3,0.2,2.5,0.6,3.5,1.2c1,0.6,1.8,1.4,2.4,2.3
		c0.6,1,0.9,2.2,0.9,3.6c0,0.7-0.1,1.4-0.3,2c-0.2,0.7-0.4,1.3-0.8,1.9c-0.3,0.6-0.7,1.1-1.2,1.6c-0.5,0.5-1,0.8-1.6,1v0.2
		c0.8,0.2,1.5,0.5,2.1,0.9c0.6,0.4,1.2,0.9,1.7,1.5c0.5,0.6,0.9,1.3,1.2,2.1c0.3,0.8,0.4,1.7,0.4,2.7c0,1.5-0.3,2.9-0.9,4
		c-0.6,1.1-1.4,2-2.5,2.7c-1.1,0.7-2.3,1.3-3.7,1.6c-1.4,0.4-2.9,0.5-4.6,0.5H113.6z M120.4,142.1h3.2c1.7,0,2.9-0.3,3.6-1
		c0.8-0.6,1.1-1.5,1.1-2.6c0-1.2-0.4-2-1.2-2.5c-0.8-0.5-2-0.7-3.6-0.7h-3.2V142.1z M120.4,154.8h3.8c3.7,0,5.6-1.4,5.6-4.1
		c0-1.3-0.5-2.3-1.4-2.8c-0.9-0.6-2.3-0.9-4.2-0.9h-3.8V154.8z"/>
	<path class="st1" d="M137.7,160.1l9.4-30.1h8.2l9.4,30.1h-7.2l-1.8-7.2h-9.2l-1.8,7.2H137.7z M148.6,144.9l-0.7,2.8h6.4l-0.7-2.8
		c-0.4-1.5-0.8-3.1-1.2-4.8c-0.4-1.7-0.8-3.3-1.2-4.9h-0.2c-0.4,1.6-0.7,3.2-1.1,4.9C149.4,141.8,149,143.4,148.6,144.9z"/>
	<path class="st1" d="M180,160.6c-1.9,0-3.7-0.3-5.4-1c-1.7-0.7-3.2-1.6-4.5-2.9c-1.3-1.3-2.3-2.9-3-4.8c-0.7-1.9-1.1-4.1-1.1-6.7
		c0-2.5,0.4-4.7,1.2-6.7c0.8-2,1.8-3.6,3.1-5c1.3-1.4,2.8-2.4,4.5-3.1c1.7-0.7,3.5-1.1,5.4-1.1c1.9,0,3.7,0.4,5.2,1.2
		c1.5,0.8,2.8,1.7,3.8,2.7l-3.6,4.3c-0.8-0.7-1.6-1.3-2.4-1.7c-0.8-0.4-1.8-0.7-2.9-0.7c-1,0-2,0.2-2.9,0.7
		c-0.9,0.4-1.7,1.1-2.4,1.9c-0.7,0.8-1.2,1.8-1.6,3c-0.4,1.2-0.6,2.6-0.6,4.1c0,3.1,0.7,5.5,2,7.2c1.3,1.7,3.1,2.6,5.3,2.6
		c1.2,0,2.3-0.3,3.3-0.8c1-0.5,1.8-1.2,2.6-2l3.6,4.2C187.3,159.2,184,160.6,180,160.6z"/>
	<path class="st1" d="M194.3,160.1V130h6.8v12.3h0.2l9-12.3h7.5l-9.1,12l10.7,18.1H212l-7.3-12.7l-3.5,4.6v8.1H194.3z"/>
</g>
</svg>
