<?xml version="1.0" ?><svg viewBox="0 0 64 64" xmlns="http://www.w3.org/2000/svg"><title/><g id="gandalf"><circle cx="21.5" cy="23.5" r="20.224" style="fill:#efefd2"/><path d="M62.4,29.415c-19.1-7.539-38.049-7.239-56.873.042a2.65,2.65,0,0,0-.2.7C5,33,18.157,38.123,33.987,38.123s31.989-5.615,28.664-8.493C62.565,29.556,62.482,29.488,62.4,29.415Z" style="fill:#6b4f5b;stroke:#4c241d;stroke-linecap:round;stroke-linejoin:round;stroke-width:2px"/><path d="M40.884,19.462a31.059,31.059,0,0,1,4.781.752" style="fill:none;stroke:#4c241d;stroke-linecap:round;stroke-linejoin:round;stroke-width:2px"/><path d="M33.987,19.014s1.048.034,2.547.12" style="fill:none;stroke:#4c241d;stroke-linecap:round;stroke-linejoin:round;stroke-width:2px"/><ellipse cx="34" cy="31.5" rx="12" ry="13.5" style="fill:#ffded5;stroke:#4c241d;stroke-linecap:round;stroke-linejoin:round;stroke-width:2px"/><path d="M55,62l-1.214-2.834A16.721,16.721,0,0,1,52.562,50.5h0a16.724,16.724,0,0,0-.577-6.883l-1.012-3.372-.507-4.569a40.229,40.229,0,0,0-2.316-9.684L46.727,22.2,34.013,15.842v-.013h-.026v.013L21.273,22.2,19.85,25.994a40.229,40.229,0,0,0-2.316,9.684l-.507,4.569-1.012,3.372a16.724,16.724,0,0,0-.577,6.883h0a16.721,16.721,0,0,1-1.224,8.664L13,62ZM44.6,34.172l-.113.513-1.483,2.046a4.175,4.175,0,0,1-4.83.95l-1.824-.845a5.653,5.653,0,0,0-4.706,0l-1.824.845a4.175,4.175,0,0,1-4.83-.95L23.51,34.685l-.113-.513a20.179,20.179,0,0,1,.01-5.363A3.488,3.488,0,0,0,26.944,23H41.056a3.48,3.48,0,0,0,3.537,5.809A20.179,20.179,0,0,1,44.6,34.172Z" style="fill:#edebdc;stroke:#4c241d;stroke-linecap:round;stroke-linejoin:round;stroke-width:2px"/><path d="M62.4,29.415a37.04,37.04,0,0,0-16.241-8.6L40.409,10.027a6.5,6.5,0,0,0-11.782,0L22.666,21.281c-10.495,2.81-16.048,5.55-17.142,8.176C24.348,22.176,43.3,21.876,62.4,29.415Z" style="fill:#b5a19c;stroke:#4c241d;stroke-linecap:round;stroke-linejoin:round;stroke-width:2px"/><circle cx="40.344" cy="31.65" r="1.724" style="fill:#4c241d"/><circle cx="28.273" cy="31.65" r="1.724" style="fill:#4c241d"/><path d="M35.813,40.014a1.654,1.654,0,0,1-3.308,0" style="fill:none;stroke:#4c241d;stroke-linecap:round;stroke-linejoin:round;stroke-width:2px"/><line style="fill:none;stroke:#4c241d;stroke-linecap:round;stroke-linejoin:round;stroke-width:2px" x1="10.121" x2="5.879" y1="7.879" y2="12.121"/><line style="fill:none;stroke:#4c241d;stroke-linecap:round;stroke-linejoin:round;stroke-width:2px" x1="5.879" x2="10.121" y1="7.879" y2="12.121"/><circle cx="54" cy="9" r="2.074" style="fill:none;stroke:#4c241d;stroke-linecap:round;stroke-linejoin:round;stroke-width:2px"/><circle cx="6" cy="46" r="2.074" style="fill:none;stroke:#4c241d;stroke-linecap:round;stroke-linejoin:round;stroke-width:2px"/></g></svg>