<?xml version="1.0" encoding="utf-8"?>
<!-- Generator: Adobe Illustrator 24.2.1, SVG Export Plug-In . SVG Version: 6.00 Build 0)  -->
<svg version="1.0" id="圖層_1" xmlns="http://www.w3.org/2000/svg" xmlns:xlink="http://www.w3.org/1999/xlink" x="0px" y="0px"
	 viewBox="0 0 600 600" style="enable-background:new 0 0 600 600;" xml:space="preserve">
<path d="M150.1,86.3c13,0,25.9,0,38.9,0c14.8,0,25.2,10,25.3,24.9c0.2,26.2,0.2,52.5,0,78.7c-0.1,13.9-10.6,24.1-24.6,24.2
	c-25.9,0.1-51.9,0.1-77.8,0c-15.1,0-25.3-10-25.5-25.1c-0.2-17.7,0-35.5-0.1-53.2c0-7.9-0.1-15.8,0-23.7
	c0.2-15.7,10.2-25.7,25.8-25.8C124.8,86.3,137.4,86.3,150.1,86.3z M150.6,128.7C150.6,128.7,150.6,128.7,150.6,128.7
	c-5.1,0-10.1-0.1-15.2,0c-4.7,0.1-6.6,1.9-6.7,6.5c-0.1,10-0.1,20,0,29.9c0,4.5,2.1,6.7,6.6,6.7c10,0.1,20,0.1,29.9,0
	c4.7-0.1,6.7-2.3,6.7-7.1c0.1-9.8,0.1-19.7,0-29.5c0-4.5-2.1-6.5-6.6-6.6C160.4,128.6,155.5,128.7,150.6,128.7z"/>
<path d="M149.9,385.5c13,0,25.9,0,38.9,0c15.3,0.1,25.5,10.2,25.5,25.6c0.1,25,0.1,50.1,0,75.1c0,17.5-9.7,27.1-27.1,27.1
	c-25,0-50.1,0-75.1,0c-15.3,0-25.4-9.7-25.5-24.9c-0.2-26.1-0.2-52.2-0.1-78.3c0.1-14.3,10.4-24.5,24.6-24.6
	C123.9,385.4,136.9,385.5,149.9,385.5z M150.3,427.7C150.3,427.7,150.3,427.7,150.3,427.7c-5.1,0-10.1-0.1-15.2,0.1
	c-4.1,0.1-6.4,2.3-6.4,6.5c-0.1,10.1,0,20.3,0,30.4c0,4.1,2.2,6.4,6.4,6.4c10.1,0,20.3,0.1,30.4,0c4.5-0.1,6.4-2.2,6.4-6.8
	c0.1-9.8,0.1-19.7,0-29.5c0-4.7-2.1-6.8-6.9-6.9C160.1,427.6,155.2,427.7,150.3,427.7z"/>
<path d="M513.7,150.6c0,12.7,0.1,25.3,0,38c-0.1,15.8-9.9,25.6-25.8,25.6c-25.6,0-51.3,0-76.9,0c-5.9,0-11.1-1.6-15.8-5.1
	c-5-3.7-7.8-8.7-8.2-14.8c-0.5-7.5-0.3-15.1-0.4-22.6c0-2.8-0.1-5.7-0.1-8.5c0-3.2,0-6.5-0.1-9.7c-0.1-6.1-0.5-12.2-0.5-18.2
	c0-9.5-0.6-19.1,0.5-28.5c1.3-10.9,9.4-20,23-20.2c27.3-0.5,54.6-0.3,81.8,0c12.4,0.1,22.2,10.6,22.4,23.4
	C513.9,123.4,513.7,137,513.7,150.6C513.7,150.6,513.7,150.6,513.7,150.6z M428.3,150.1C428.3,150.1,428.3,150.1,428.3,150.1
	c0,4.9-0.1,9.8,0,14.7c0.1,5,1.9,7,7.1,7.1c9.7,0.1,19.4,0.1,29,0c4.8-0.1,7-2.1,7-6.8c0.1-10,0.1-20,0-29.9c0-4-2-6.5-6.3-6.5
	c-10.3,0-20.5-0.1-30.8,0c-4,0-6,2.2-6,6.2C428.3,140,428.3,145.1,428.3,150.1z"/>
<path d="M125.3,9.2c13.7-0.6,19.9,8.4,20,16.3c0.1,9.2-6.8,17.3-19.7,17c-22.8-0.5-45.6-0.2-68.4-0.1c-10.4,0-14.6,4.2-14.6,14.7
	c-0.1,15.2,0,64.7-0.5,74.2c-0.5,8.9-9.8,14.5-18.5,13.4c-8-1.1-11.3-6.1-13.4-12.4c-1.1-3.4-0.8-7.3-0.7-10.9
	c0.1-6.8-0.6-60.1,0.6-72.7c2-21.9,21-38.7,42.9-39.2C65.3,9.2,113.6,9.8,125.3,9.2z"/>
<path d="M42.3,471.3c0-8.4-6.7-15.8-14.6-16.3c-8.3-0.5-17.7,7-18.3,15.1c-0.4,6-0.1,66.7-0.1,75c0.2,26.3,19.8,45.7,46,45.7
	c11.5,0,60.7,0.1,73.8-0.1c9-0.1,16.3-7.5,16.2-16.3c0-9.1-6.8-16.2-15.9-16.6c-3.6-0.2-52.8,0-73.8-0.1c-7.9,0-12.9-4.4-13.1-11.6
	L42.3,471.3z"/>
<path d="M590.7,92c0,12.4,0.2,24.7-0.1,37.1c-0.2,8.1-5.7,14.4-13.2,15.9c-7.5,1.4-15-2.2-18.1-9.2c-1.1-2.5-1.7-5.4-1.7-8.2
	c-0.1-19.8-0.1-39.6-0.1-59.5c0-4.7,0.1-9.4-0.1-14.1c-0.3-7.2-5.6-11.7-12.8-11.6c-24.7,0.1-49.4,0.1-74.2-0.1
	c-9-0.1-16-7.8-15.8-16.7c0.2-8.7,7.2-16.1,15.9-16.1c25,0,50.1,0.6,75.1,0.2c12.3-0.2,22.3,4.4,31,12.2c10,9.1,14,21,14,34.4
	C590.8,68.2,590.8,80.1,590.7,92C590.8,92,590.7,92,590.7,92z"/>
<path d="M509.5,590.8c-12.4,0-24.7,0-37.1,0c-10.1,0-17.5-6.9-17.7-16.3c-0.1-9.5,7.3-16.7,17.7-16.7c18.8-0.1,37.6,0,56.3,0
	c6.1,0,12.2,0.6,18.2,0.2c7.3-0.4,11.9-6.8,11-14c-0.3-2.2-0.3-4.4-0.3-6.7c0-21.8,0-43.5,0-65.3c0-8.1,4.7-14.4,11.9-16.5
	c7.2-2.1,14.9,0.5,18.6,7.1c1.6,2.9,2.5,6.5,2.6,9.7c0.2,24.4,0.1,48.9,0.1,73.3c0,23.9-19.5,45.6-45.9,45.1
	C533.1,590.6,521.3,590.8,509.5,590.8z"/>
<path d="M507.7,310.8c0,16.4,0,32.8,0,49.2c0,9.9-4.2,14.1-14.1,14.3c-5.1,0.1-10.1,0.2-15.2,0c-8.4-0.2-12.8-4.8-12.9-13.3
	c0-5.4,0.1-10.7,0-16.1c-0.1-8.5-4.9-13.3-13.4-13.4c-5.5-0.1-11,0-16.5-0.1c-8.2-0.1-12.9-5-13-13.2c0-5.2,0-10.4,0-15.7
	c0-8.8,4.6-13.4,13.6-13.5c5.4-0.1,10.7,0,16.1,0c8.2-0.1,13-4.9,13.2-13.1c0.1-5.8,0-11.6,0.1-17.4c0.1-7,4.6-11.9,11.7-12.2
	c6.2-0.3,12.5-0.3,18.8,0c7.3,0.3,11.7,5.2,11.7,13C507.8,276.5,507.7,293.6,507.7,310.8C507.7,310.8,507.7,310.8,507.7,310.8z"/>
<path d="M254.6,313.6c0.1-8.8,4.5-13.2,13.2-13.3c5.4,0,10.7,0,16.1,0c8.2-0.1,13.1-4.7,13.4-12.9c0.2-5.5,0-11,0.1-16.5
	c0.1-8.7,4.6-13.3,13.2-13.3c5.7,0,11.3-0.1,17,0.1c7.4,0.2,11.9,4.8,12,12.2c0.1,20.1,0.1,40.3,0,60.4c0,7.7-4.5,12.1-12.3,12.3
	c-5.4,0.1-10.7,0-16.1,0.1c-9.6,0.1-14.3,4.8-14.4,14.3c0,5.5,0.1,11-0.1,16.5c-0.2,7.1-4.8,11.8-11.8,11.9
	c-6.1,0.1-12.2,0.1-18.3,0c-7.3-0.1-11.9-4.7-12-12.2C254.5,362.9,254.6,323.3,254.6,313.6z"/>
<path d="M287,513.3c-10.7,0-21.5,0-32.2,0c-7.1,0-10.5-3.3-10.5-10.4c-0.1-21.5-0.1-42.9,0-64.4c0-7,3.4-10.3,10.6-10.4
	c7.2-0.1,14.3-0.1,21.5,0c7.2,0.1,10.3,3.3,10.3,10.5c0.1,7.5-0.1,14.9,0,22.4c0.1,6.5,3.6,9.9,10,10c7.5,0.1,14.9,0,22.4,0
	c7.2,0.1,10.4,3.2,10.4,10.4c0,7.2,0,14.3,0,21.5c0,7.1-3.3,10.5-10.3,10.5C308.5,513.3,297.8,513.3,287,513.3z"/>
<path d="M216.5,319.4c0,8.2-3.5,11.8-11.8,11.7c-7.7-0.1-15.4-0.3-23.1-0.8c-4.1-0.3-6.5-3.1-6.7-7.1c-0.4-6.8-0.5-13.6-0.4-20.5
	c0.1-11.4-4.9-15.6-16.2-14.7c-6.8,0.6-13.7,0.2-20.4-0.8c-4-0.5-6.1-4.2-6.2-8.3c-0.2-8-0.2-16.1,0-24.1c0.2-5.3,4.5-8.9,10.4-9
	c7.2-0.2,48.8,0,62.5,0c8.8,0,12.1,3.4,12.1,12.3C216.5,268.3,216.5,309.1,216.5,319.4z"/>
<path d="M359.9,164.1c0,9.7,0,19.4,0,29.1c0,8.7-4.5,13.2-13.2,13.3c-5.5,0.1-11,0.1-16.5,0c-7.6-0.2-12.4-4.7-12.4-12.3
	c-0.1-20.1-0.1-40.2,0-60.4c0-7.7,4.6-12.2,12.3-12.4c6-0.2,11.9-0.2,17.9,0c7.4,0.3,11.9,4.8,12,12.3
	C360,143.9,359.9,154,359.9,164.1z"/>
<path d="M450.2,449.6c-13,0-26.1,0-39.1,0c-11.8,0-17.8-4.5-17.9-13.2c-0.1-5.5-0.1-11,0-16.5c0.2-7.6,6.4-12.4,16.5-12.4
	c27.1-0.1,54.1-0.1,81.2,0c10.3,0,16.4,4.6,16.7,12.3c0.2,6,0.2,11.9,0,17.9c-0.3,7.4-6.5,11.9-16.5,12
	C477.5,449.7,463.9,449.6,450.2,449.6z"/>
<path d="M395.8,238.6c3,0,6-0.1,8.9,0c7.2,0.2,12,4.9,12.2,12.1c0.2,6,0.2,11.9,0,17.9c-0.2,7.3-4.8,12-12.1,12.2
	c-6.1,0.2-12.2,0.2-18.3,0c-7-0.2-11.7-4.8-11.9-11.8c-0.2-6.1-0.2-12.2,0-18.3c0.2-7.3,5-11.8,12.3-12
	C389.9,238.5,392.9,238.5,395.8,238.6z"/>
<path d="M382.1,321.4c3.1,0,6.3-0.1,9.4,0c6.3,0.3,11,4.2,11.4,10.4c0.5,7,0.5,14,0.1,21c-0.4,6.5-5,10.6-11.5,10.7
	c-6.3,0.2-12.5,0.2-18.8,0c-7-0.2-11.7-4.9-11.8-11.9c-0.1-6.1-0.1-12.2,0-18.3c0.2-6.9,5-11.7,11.9-11.9
	C375.8,321.3,379,321.4,382.1,321.4C382.1,321.4,382.1,321.4,382.1,321.4z"/>
<path d="M140.3,338.7c0,3.3,0.1,6.6,0,9.8c-0.3,6.3-4.8,11.1-11,11.3c-6.7,0.2-13.4,0.3-20.1,0c-6.1-0.2-10.7-4.7-10.9-10.9
	c-0.3-6.8-0.3-13.7,0-20.5c0.3-6.1,4.8-10.4,11.1-10.7c6.5-0.3,13.1-0.3,19.6,0c6.8,0.3,11,5,11.2,12
	C140.4,332.7,140.3,335.7,140.3,338.7z"/>
<path d="M507.7,492.4c0,3.4,0.2,6.9,0,10.3c-0.4,6.4-4.9,10.8-11.3,11c-6.5,0.2-13.1,0.2-19.7,0c-6.3-0.2-10.9-5-11.1-11.2
	c-0.2-6.5-0.2-13.1,0-19.7c0.2-6.2,4.4-10.8,10.7-11.1c6.8-0.4,13.7-0.4,20.5,0c6.4,0.3,10.6,5,10.9,11.4
	C507.8,486.2,507.7,489.3,507.7,492.4C507.7,492.4,507.7,492.4,507.7,492.4z"/>
<path d="M424.2,492.4c0,3.4,0.2,6.9,0,10.3c-0.4,6.4-4.9,10.8-11.3,11c-6.5,0.2-13.1,0.2-19.7,0c-6.3-0.2-10.9-5-11.1-11.2
	c-0.2-6.5-0.2-13.1,0-19.7c0.2-6.2,4.4-10.8,10.7-11.1c6.8-0.4,13.7-0.4,20.5,0c6.4,0.3,10.6,5,10.9,11.4
	C424.4,486.2,424.2,489.3,424.2,492.4C424.2,492.4,424.2,492.4,424.2,492.4z"/>
<path d="M289.6,211.4c0,3.4,0.2,6.9,0,10.3c-0.4,6.4-4.9,10.8-11.3,11c-6.5,0.2-13.1,0.2-19.7,0c-6.3-0.2-10.9-5-11.1-11.2
	c-0.2-6.5-0.2-13.1,0-19.7c0.2-6.2,4.4-10.8,10.7-11.1c6.8-0.4,13.7-0.4,20.5,0c6.4,0.3,10.6,5,10.9,11.4
	C289.7,205.1,289.6,208.3,289.6,211.4C289.6,211.4,289.6,211.4,289.6,211.4z"/>
<path d="M361.1,416.2c0,3.4,0.2,6.9,0,10.3c-0.4,6.4-4.9,10.8-11.3,11c-6.5,0.2-13.1,0.2-19.7,0c-6.3-0.2-10.9-5-11.1-11.2
	c-0.2-6.5-0.2-13.1,0-19.7c0.2-6.2,4.4-10.8,10.7-11.1c6.8-0.4,13.7-0.4,20.5,0c6.4,0.3,10.6,5,10.9,11.4
	C361.3,410,361.2,413.1,361.1,416.2C361.2,416.2,361.2,416.2,361.1,416.2z"/>
<path d="M289.6,134.5c0,3.4,0.2,6.9,0,10.3c-0.4,6.4-4.9,10.8-11.3,11c-6.5,0.2-13.1,0.2-19.7,0c-6.3-0.2-10.9-5-11.1-11.2
	c-0.2-6.5-0.2-13.1,0-19.7c0.2-6.2,4.4-10.8,10.7-11.1c6.8-0.4,13.7-0.4,20.5,0c6.4,0.3,10.6,5,10.9,11.4
	C289.7,128.3,289.6,131.4,289.6,134.5C289.6,134.5,289.6,134.5,289.6,134.5z"/>
</svg>
