<?xml version="1.0" encoding="utf-8"?>
<!-- Generator: Adobe Illustrator 24.2.1, SVG Export Plug-In . SVG Version: 6.00 Build 0)  -->
<svg version="1.0" id="圖層_1" xmlns="http://www.w3.org/2000/svg" xmlns:xlink="http://www.w3.org/1999/xlink" x="0px" y="0px"
	 viewBox="0 0 600 600" style="enable-background:new 0 0 600 600;" xml:space="preserve">
<g>
	<path d="M511.6,151.8c0,13,0,25.9,0,38.9c0,14.8-10,25.2-24.9,25.3c-26.2,0.2-52.5,0.2-78.7,0c-13.9-0.1-24.1-10.6-24.2-24.6
		c-0.1-25.9-0.1-51.9,0-77.8c0-15.1,10-25.3,25.1-25.5c17.7-0.2,35.5,0,53.2-0.1c7.9,0,15.8-0.1,23.7,0
		c15.7,0.2,25.7,10.2,25.8,25.8C511.6,126.5,511.6,139.1,511.6,151.8z M469.2,152.3L469.2,152.3c0-5.1,0.1-10.1,0-15.2
		c-0.1-4.7-1.9-6.6-6.5-6.7c-10-0.1-20-0.1-29.9,0c-4.5,0-6.7,2.1-6.7,6.6c-0.1,10-0.1,20,0,29.9c0.1,4.7,2.3,6.7,7.1,6.7
		c9.8,0.1,19.7,0.1,29.5,0c4.5,0,6.5-2.1,6.6-6.6C469.3,162.1,469.2,157.2,469.2,152.3z"/>
	<path d="M212.4,151.6c0,13,0,25.9,0,38.9c-0.1,15.3-10.2,25.5-25.6,25.5c-25,0.1-50.1,0.1-75.1,0c-17.5,0-27.1-9.7-27.1-27.1
		c0-25,0-50.1,0-75.1c0-15.3,9.7-25.4,24.9-25.5c26.1-0.2,52.2-0.2,78.3-0.1c14.3,0.1,24.5,10.4,24.6,24.6
		C212.5,125.6,212.4,138.6,212.4,151.6z M170.2,152L170.2,152c0-5.1,0.1-10.1-0.1-15.2c-0.1-4.1-2.3-6.4-6.5-6.4
		c-10.1-0.1-20.3,0-30.4,0c-4.1,0-6.4,2.2-6.4,6.4c0,10.1-0.1,20.3,0,30.4c0.1,4.5,2.2,6.4,6.8,6.4c9.8,0.1,19.7,0.1,29.5,0
		c4.7,0,6.8-2.1,6.9-6.9C170.3,161.8,170.2,156.9,170.2,152z"/>
	<path d="M447.3,511.6c-12.7,0-25.3,0.1-38,0c-15.8-0.1-25.6-9.9-25.6-25.8c0-25.6,0-51.3,0-76.9c0-5.9,1.6-11.1,5.1-15.8
		c3.7-5,8.7-7.8,14.8-8.2c7.5-0.5,15.1-0.3,22.6-0.4c2.8,0,5.7-0.1,8.5-0.1c3.2,0,6.5,0,9.7-0.1c6.1-0.1,12.2-0.5,18.2-0.5
		c9.5,0,19.1-0.6,28.5,0.5c10.9,1.3,20,9.4,20.2,23c0.5,27.3,0.3,54.6,0,81.8c-0.1,12.4-10.6,22.2-23.4,22.4
		C474.5,511.8,460.9,511.6,447.3,511.6L447.3,511.6z M447.8,426.2L447.8,426.2c-4.9,0-9.8-0.1-14.7,0c-5,0.1-7,1.9-7.1,7.1
		c-0.1,9.7-0.1,19.4,0,29c0.1,4.8,2.1,7,6.8,7c10,0.1,20,0.1,29.9,0c4,0,6.5-2,6.5-6.3c0-10.3,0.1-20.5,0-30.8c0-4-2.2-6-6.2-6
		C457.9,426.2,452.8,426.2,447.8,426.2z"/>
	<path d="M290.6,504.6c-16.4,0-32.8,0-49.2,0c-9.9,0-14.1-4.2-14.3-14.1c-0.1-5.1-0.2-10.1,0-15.2c0.2-8.4,4.8-12.8,13.3-12.9
		c5.4,0,10.7,0.1,16.1,0c8.5-0.1,13.3-4.9,13.4-13.4c0.1-5.5,0-11,0.1-16.5c0.1-8.2,5-12.9,13.2-13c5.2,0,10.4,0,15.7,0
		c8.8,0,13.4,4.6,13.5,13.6c0.1,5.4,0,10.7,0,16.1c0.1,8.2,4.9,13,13.1,13.2c5.8,0.1,11.6,0,17.4,0.1c7,0.1,11.9,4.6,12.2,11.7
		c0.3,6.2,0.3,12.5,0,18.8c-0.3,7.3-5.2,11.7-13,11.7C324.9,504.7,307.8,504.6,290.6,504.6L290.6,504.6z"/>
	<path d="M302.3,240.8c8.8,0.1,13.2,4.5,13.3,13.2c0,5.4,0,10.7,0,16.1c0.1,8.2,4.7,13.1,12.9,13.4c5.5,0.2,11,0,16.5,0.1
		c8.7,0.1,13.3,4.6,13.3,13.2c0,5.7,0.1,11.3-0.1,17c-0.2,7.4-4.8,11.9-12.2,12c-20.1,0.1-40.3,0.1-60.4,0
		c-7.7,0-12.1-4.5-12.3-12.3c-0.1-5.4,0-10.7-0.1-16.1c-0.1-9.6-4.8-14.3-14.3-14.4c-5.5,0-11,0.1-16.5-0.1
		c-7.1-0.2-11.8-4.8-11.9-11.8c-0.1-6.1-0.1-12.2,0-18.3c0.1-7.3,4.7-11.9,12.2-12C253,240.7,292.6,240.8,302.3,240.8z"/>
	<path d="M281.7,211.2c-8.2,0-11.8-3.5-11.7-11.8c0.1-7.7,0.3-15.4,0.8-23.1c0.3-4.1,3.1-6.5,7.1-6.7c6.8-0.4,13.6-0.5,20.5-0.4
		c11.4,0.1,15.6-4.9,14.7-16.2c-0.6-6.8-0.2-13.7,0.8-20.4c0.5-4,4.2-6.1,8.3-6.2c8-0.2,16.1-0.2,24.1,0c5.3,0.2,8.9,4.5,9,10.4
		c0.2,7.2,0,48.8,0,62.5c0,8.8-3.4,12.1-12.3,12.1C332.8,211.2,292,211.2,281.7,211.2z"/>
	<path d="M194.3,461.9c0,8.2-3.5,11.8-11.8,11.7c-7.7-0.1-15.4-0.3-23.1-0.8c-4.1-0.3-6.5-3.1-6.7-7.1c-0.4-6.8-0.5-13.6-0.4-20.5
		c0.1-11.4-4.9-15.6-16.2-14.7c-6.8,0.6-13.7,0.2-20.4-0.8c-4-0.5-6.1-4.2-6.2-8.3c-0.2-8-0.2-16.1,0-24.1c0.2-5.3,4.5-8.9,10.4-9
		c7.2-0.2,48.8,0,62.5,0c8.8,0,12.1,3.4,12.1,12.3C194.3,410.8,194.3,451.6,194.3,461.9z"/>
	<path d="M143.6,287.2c-11.5,0-23.1,0-34.6,0c-10.4,0-15.8-4.5-15.8-13.2c-0.1-5.5-0.1-11,0-16.5c0.2-7.6,5.7-12.4,14.6-12.4
		c24-0.1,47.9-0.1,71.8,0c9.1,0,14.5,4.6,14.8,12.3c0.2,6,0.2,11.9,0,17.9c-0.3,7.4-5.8,11.9-14.6,12
		C167.7,287.3,155.7,287.2,143.6,287.2z"/>
	<path d="M502.9,299.9c0,11.5,0,23.1,0,34.6c0,10.4-4.5,15.8-13.2,15.8c-5.5,0.1-11,0.1-16.5,0c-7.6-0.2-12.4-5.7-12.4-14.6
		c-0.1-24-0.1-47.9,0-71.8c0-9.1,4.6-14.5,12.3-14.8c6-0.2,11.9-0.2,17.9,0c7.4,0.3,11.9,5.8,12,14.6
		C503,275.7,502.9,287.8,502.9,299.9z"/>
	<path d="M143.6,354.5c-11.5,0-23.1,0-34.6,0c-10.4,0-15.8-4.5-15.8-13.2c-0.1-5.5-0.1-11,0-16.5c0.2-7.6,5.7-12.4,14.6-12.4
		c24-0.1,47.9-0.1,71.8,0c9.1,0,14.5,4.6,14.8,12.3c0.2,6,0.2,11.9,0,17.9c-0.3,7.4-5.8,11.9-14.6,12
		C167.7,354.6,155.7,354.5,143.6,354.5z"/>
	<path d="M350.3,382.8c0,3,0.1,6,0,8.9c-0.2,7.2-4.9,12-12.1,12.2c-6,0.2-11.9,0.2-17.9,0c-7.3-0.2-12-4.8-12.2-12.1
		c-0.2-6.1-0.2-12.2,0-18.3c0.2-7,4.8-11.7,11.8-11.9c6.1-0.2,12.2-0.2,18.3,0c7.3,0.2,11.8,5,12,12.3
		C350.4,376.9,350.4,379.9,350.3,382.8z"/>
	<path d="M277,361.8c0,3.1,0.1,6.3,0,9.4c-0.3,6.3-4.2,11-10.4,11.4c-7,0.5-14,0.5-21,0.1c-6.5-0.4-10.6-5-10.7-11.5
		c-0.2-6.3-0.2-12.5,0-18.8c0.2-7,4.9-11.7,11.9-11.8c6.1-0.1,12.2-0.1,18.3,0c6.9,0.2,11.7,5,11.9,11.9
		C277.1,355.5,277,358.7,277,361.8L277,361.8z"/>
	<path d="M263.2,135c-3.3,0-6.6,0.1-9.8,0c-6.3-0.3-11.1-4.8-11.3-11c-0.2-6.7-0.3-13.4,0-20.1c0.2-6.1,4.7-10.7,10.9-10.9
		c6.8-0.3,13.7-0.3,20.5,0c6.1,0.3,10.4,4.8,10.7,11.1c0.3,6.5,0.3,13.1,0,19.6c-0.3,6.8-5,11-12,11.2
		C269.2,135.1,266.2,135,263.2,135z"/>
	<path d="M110.5,507.6c-3.4,0-6.9,0.2-10.3,0c-6.4-0.4-10.8-4.9-11-11.3c-0.2-6.5-0.2-13.1,0-19.7c0.2-6.3,5-10.9,11.2-11.1
		c6.5-0.2,13.1-0.2,19.7,0c6.2,0.2,10.8,4.4,11.1,10.7c0.4,6.8,0.4,13.7,0,20.5c-0.3,6.4-5,10.6-11.4,10.9
		C116.7,507.7,113.6,507.6,110.5,507.6L110.5,507.6z"/>
	<path d="M419.4,265c0,3.4,0.2,6.9,0,10.3c-0.4,6.4-4.9,10.8-11.3,11c-6.5,0.2-13.1,0.2-19.7,0c-6.3-0.2-10.9-5-11.1-11.2
		c-0.2-6.5-0.2-13.1,0-19.7c0.2-6.2,4.4-10.8,10.7-11.1c6.8-0.4,13.7-0.4,20.5,0c6.4,0.3,10.6,5,10.9,11.4
		C419.5,258.8,419.4,261.9,419.4,265L419.4,265z"/>
	<path d="M435.6,334.9c0,3.4,0.2,6.9,0,10.3c-0.4,6.4-4.9,10.8-11.3,11c-6.5,0.2-13.1,0.2-19.7,0c-6.3-0.2-10.9-5-11.1-11.2
		c-0.2-6.5-0.2-13.1,0-19.7c0.2-6.2,4.4-10.8,10.7-11.1c6.8-0.4,13.7-0.4,20.5,0c6.4,0.3,10.6,5,10.9,11.4
		C435.8,328.7,435.6,331.8,435.6,334.9L435.6,334.9z"/>
</g>
</svg>
