<?xml version="1.0" ?><svg viewBox="0 0 64 64" xmlns="http://www.w3.org/2000/svg"><title/><g id="storm_trooper"><circle cx="42.5" cy="23.5" r="20.224" style="fill:#efefd2"/><ellipse cx="31.32" cy="55.067" rx="9.868" ry="6.167" style="fill:#6b4f5b;stroke:#4c241d;stroke-linecap:round;stroke-linejoin:round;stroke-width:2px"/><path d="M9.117,31.014a21.586,21.586,0,0,1,43.172,0l3.794,13.752a7.83,7.83,0,0,1-1.728,7.32l-6.069,6.743a4.248,4.248,0,0,1-5.058.958L35.858,56.1a10.557,10.557,0,0,0-9.145-.143L18.305,59.84a4.249,4.249,0,0,1-5.1-1.2l-5.49-6.863A7.832,7.832,0,0,1,6.162,45.3Z" style="fill:#edebdc;stroke:#4c241d;stroke-linecap:round;stroke-linejoin:round;stroke-width:2px"/><line style="fill:none;stroke:#4c241d;stroke-linecap:round;stroke-linejoin:round;stroke-width:2px" x1="9" x2="52" y1="31" y2="31"/><polyline points="17.752 36.564 12.818 42.732 17.752 50.133 31.32 41.498 44.888 50.133 49.822 42.732 44.888 36.564" style="fill:none;stroke:#4c241d;stroke-linecap:round;stroke-linejoin:round;stroke-width:2px"/><path d="M28.435,31c-2.839,3.569-5.7,8.031-9.228,8.031S12.818,35.436,12.818,31Z" style="fill:#6b4f5b;stroke:#4c241d;stroke-linecap:round;stroke-linejoin:round;stroke-width:2px"/><path d="M33.191,31c2.839,3.569,5.7,8.031,9.228,8.031S48.808,35.436,48.808,31Z" style="fill:#6b4f5b;stroke:#4c241d;stroke-linecap:round;stroke-linejoin:round;stroke-width:2px"/><circle cx="44.888" cy="56.018" r="1.599" style="fill:#4c241d"/><line style="fill:none;stroke:#4c241d;stroke-linecap:round;stroke-linejoin:round;stroke-width:2px" x1="7.176" x2="14.051" y1="43.46" y2="52.6"/><line style="fill:none;stroke:#4c241d;stroke-linecap:round;stroke-linejoin:round;stroke-width:2px" x1="55.464" x2="48.589" y1="43.46" y2="52.6"/><path d="M10.132,5.169a1.632,1.632,0,1,1-3.264,0" style="fill:none;stroke:#4c241d;stroke-linecap:round;stroke-linejoin:round;stroke-width:2px"/><path d="M6.868,13.331a1.632,1.632,0,1,1,3.264,0" style="fill:none;stroke:#4c241d;stroke-linecap:round;stroke-linejoin:round;stroke-width:2px"/><path d="M4.186,10.649a1.632,1.632,0,0,0,0-3.264" style="fill:none;stroke:#4c241d;stroke-linecap:round;stroke-linejoin:round;stroke-width:2px"/><path d="M12.814,7.385a1.632,1.632,0,0,0,0,3.264" style="fill:none;stroke:#4c241d;stroke-linecap:round;stroke-linejoin:round;stroke-width:2px"/></g></svg>