<svg version="1.2" xmlns="http://www.w3.org/2000/svg" xmlns:xlink="http://www.w3.org/1999/xlink" overflow="visible" preserveAspectRatio="none" viewBox="0 0 172 210" width="172" height="210"><g transform="translate(3, 3)"><defs><path id="path-159366386695750642" d="M927 596 C927 596 888 800 888 800 C888 800 901 800 901 800 C901 800 909 761 909 761 C909 761 1012 761 1012 761 C1012 761 1006 800 1006 800 C1006 800 1020 800 1020 800 C1020 800 1054 596 1054 596 C1054 596 927 596 927 596 Z" vector-effect="non-scaling-stroke"/></defs><g transform="translate(-888, -596)"><path style="stroke: rgb(242, 162, 2); stroke-width: 3; stroke-linecap: butt; stroke-linejoin: miter; fill: rgb(0, 0, 0);" d="M927 596 C927 596 888 800 888 800 C888 800 901 800 901 800 C901 800 909 761 909 761 C909 761 1012 761 1012 761 C1012 761 1006 800 1006 800 C1006 800 1020 800 1020 800 C1020 800 1054 596 1054 596 C1054 596 927 596 927 596 Z" vector-effect="non-scaling-stroke"/></g></g></svg>